<svg width="13" height="16" viewBox="0 0 13 16" fill="none" xmlns="http://www.w3.org/2000/svg">
<path opacity="0.15" d="M3.24869 10.8571C3.24869 10.5417 3.14294 10.2723 2.93144 10.0491C2.71994 9.82589 2.46473 9.71429 2.16581 9.71429C1.86689 9.71429 1.61168 9.82589 1.40018 10.0491C1.18868 10.2723 1.08293 10.5417 1.08293 10.8571C1.08293 11.1726 1.18868 11.442 1.40018 11.6652C1.61168 11.8884 1.86689 12 2.16581 12C2.46473 12 2.71994 11.8884 2.93144 11.6652C3.14294 11.442 3.24869 11.1726 3.24869 10.8571ZM11.9118 10.8571C11.9118 10.5417 11.806 10.2723 11.5945 10.0491C11.383 9.82589 11.1278 9.71429 10.8289 9.71429C10.5299 9.71429 10.2747 9.82589 10.0632 10.0491C9.85174 10.2723 9.74599 10.5417 9.74599 10.8571C9.74599 11.1726 9.85174 11.442 10.0632 11.6652C10.2747 11.8884 10.5299 12 10.8289 12C11.1278 12 11.383 11.8884 11.5945 11.6652C11.806 11.442 11.9118 11.1726 11.9118 10.8571ZM11.5226 7.32143L10.9135 3.89286C10.8853 3.75595 10.8218 3.64435 10.7231 3.55804C10.6244 3.47173 10.5102 3.42857 10.3805 3.42857H2.61419C2.48447 3.42857 2.37026 3.47173 2.27156 3.55804C2.17286 3.64435 2.10941 3.75595 2.08121 3.89286L1.47209 7.32143C1.44389 7.5 1.48337 7.65774 1.59053 7.79464C1.69769 7.93155 1.83587 8 2.00507 8H10.9896C11.1588 8 11.297 7.93155 11.4042 7.79464C11.5113 7.65774 11.5508 7.5 11.5226 7.32143ZM9.61063 1.85714C9.61063 1.7381 9.57115 1.6369 9.49219 1.55357C9.41323 1.47024 9.31735 1.42857 9.20455 1.42857H3.79013C3.67733 1.42857 3.58145 1.47024 3.50249 1.55357C3.42353 1.6369 3.38405 1.7381 3.38405 1.85714C3.38405 1.97619 3.42353 2.07738 3.50249 2.16071C3.58145 2.24405 3.67733 2.28571 3.79013 2.28571H9.20455C9.31735 2.28571 9.41323 2.24405 9.49219 2.16071C9.57115 2.07738 9.61063 1.97619 9.61063 1.85714ZM12.9946 8.33036V13.7143H11.9118V14.8571C11.9118 15.1726 11.806 15.442 11.5945 15.6652C11.383 15.8884 11.1278 16 10.8289 16C10.5299 16 10.2747 15.8884 10.0632 15.6652C9.85174 15.442 9.74599 15.1726 9.74599 14.8571V13.7143H3.24869V14.8571C3.24869 15.1726 3.14294 15.442 2.93144 15.6652C2.71994 15.8884 2.46473 16 2.16581 16C1.86689 16 1.61168 15.8884 1.40018 15.6652C1.18868 15.442 1.08293 15.1726 1.08293 14.8571V13.7143H4.57764e-05V8.33036C4.57764e-05 7.66369 0.0705459 7 0.211546 6.33929L1.08293 2.28571C1.13369 1.82143 1.40864 1.41369 1.90778 1.0625C2.40692 0.71131 3.05552 0.446429 3.85358 0.267857C4.65165 0.0892857 5.5329 0 6.49734 0C7.46178 0 8.34303 0.0892857 9.1411 0.267857C9.93916 0.446429 10.5878 0.71131 11.0869 1.0625C11.586 1.41369 11.861 1.82143 11.9118 2.28571L12.8001 6.33929C12.9298 6.94643 12.9946 7.61012 12.9946 8.33036Z" fill="#1D2E5B"/>
</svg>
