<svg xmlns="http://www.w3.org/2000/svg" xmlns:xlink="http://www.w3.org/1999/xlink"><symbol id="icon-bike" viewBox="0 0 24 21">
<path d="M16,3.6c1,0,1.8-0.8,1.8-1.8S17,0,16,0s-1.8,0.8-1.8,1.8S15,3.6,16,3.6z M19,11c-2.8,0-5,2.3-5,5s2.2,5,5,5s5-2.3,5-5
	S21.8,11,19,11z M19,19.6c-1.9,0-3.5-1.6-3.5-3.5s1.6-3.5,3.5-3.5s3.5,1.6,3.5,3.5S20.9,19.6,19,19.6z M14.8,8.9H19V7.1h-3.2
	l-1.9-3.3C13.6,3.3,13.1,3,12.4,3c-0.5,0-0.9,0.2-1.2,0.5L7.5,7.2C7.2,7.5,7,7.9,7,8.4C7,9,7.3,9.6,7.8,9.9l3.3,2v5H13v-6.5
	l-2.2-1.7l2.3-2.4L14.8,8.9z M5,11c-2.8,0-5,2.3-5,5s2.2,5,5,5s5-2.3,5-5S7.8,11,5,11z M5,19.6c-1.9,0-3.5-1.6-3.5-3.5
	s1.6-3.5,3.5-3.5s3.5,1.5,3.5,3.5S6.9,19.6,5,19.6z"/>
</symbol><symbol id="icon-bus" viewBox="0 0 17 21">
<path d="M16.2,3.1c-0.2-1.2-1-1.6-2.1-2.1C13,0.6,10.4,0,8.5,0C6.6,0,4,0.6,2.9,1C1.8,1.5,1.1,1.9,0.8,3.1L0,9.5v8.8h1.4v1.4
	c0,1.7,2.5,1.7,2.5,0v-1.4h4.5h0h4.7v1.4c0,1.7,2.5,1.7,2.5,0v-1.4H17V9.5L16.2,3.1z M5,1.6h3.4H12c0.7,0,0.7,1,0,1H8.4H5
	C4.3,2.7,4.3,1.6,5,1.6z M2.7,15.6c-0.6,0-1.2-0.5-1.2-1.2c0-0.7,0.5-1.2,1.2-1.2c0.6,0,1.2,0.5,1.2,1.2C3.8,15,3.3,15.6,2.7,15.6z
	 M8.4,10.2H2.2c-0.6,0-0.7-0.4-0.7-0.9l0.6-4.7c0.1-0.6,0.3-0.9,1-0.9h5.3h5.4c0.7,0,0.9,0.4,1,0.9l0.6,4.7c0.1,0.4-0.1,0.9-0.7,0.9
	H8.4z M14.3,15.6c-0.6,0-1.2-0.5-1.2-1.2c0-0.7,0.5-1.2,1.2-1.2c0.6,0,1.2,0.5,1.2,1.2C15.5,15,15,15.6,14.3,15.6z"/>
</symbol><symbol id="icon-heart-active" viewBox="0 0 13 11">
<path fill="#f02323" d="M12,1c-1.3-1.3-3.4-1.3-4.7,0L6.5,1.7L5.7,1C4.4-0.3,2.3-0.3,1,1c-1.3,1.3-1.3,3.4,0,4.6l0.8,0.8L6.5,11l4.7-4.6L12,5.6
	C13.3,4.3,13.3,2.2,12,1z"/>
</symbol><symbol id="icon-heart" viewBox="0 0 20 17">
<path d="M18.5,1.5c-2-2-5.3-2-7.3,0L10,2.7L8.8,1.5c-2-2-5.3-2-7.3,0c-2,2-2,5.2,0,7.2l1.2,1.2L10,17l7.3-7.2l1.2-1.2
	C20.5,6.7,20.5,3.5,18.5,1.5z M14.9,9.8L10,14.6L5.1,9.8L2.7,7.5C1.4,6.1,1.4,4,2.7,2.7c1.3-1.3,3.5-1.3,4.9,0L10,5.1l2.4-2.4
	c1.3-1.3,3.5-1.3,4.9,0c1.3,1.3,1.3,3.5,0,4.8L14.9,9.8z"/>
</symbol><symbol id="icon-plane" viewBox="0 0 19 21">
<path d="M18.9,18.9c-0.1-0.3-3.7-10.1-3.7-10.1c0,0,0,0,0,0c-0.1-0.5,0.1-0.7,0.3-1.1c0,0,2.1-3.5,2.8-4.6c0.7-1.2,0.6-2.3-0.1-2.8
	c-0.7-0.5-1.7-0.1-2.5,1c-0.8,1.1-3,4.5-3,4.5c-0.3,0.4-0.4,0.7-0.9,0.8c0,0,0,0,0,0C11.7,6.5,1.5,7,1.2,7c-0.3,0-0.7,0.1-1,0.6
	C-0.2,8.3,0,8.5,0.4,8.6c0,0,8,2.6,8.3,2.7C9,11.3,9,11.5,8.9,11.9c-0.2,0.4-1.4,2.3-1.6,2.6c-0.1,0.2-0.2,0.2-0.4,0.3l-2.8,1
	c-0.1,0-0.3,0.1-0.4,0.3c0,0-0.2,0.3-0.4,0.6c-0.2,0.3-0.1,0.5,0.2,0.5c0.3,0.1,2.1,0.2,2.1,0.2c0,0,0.3,0.1,0.4,0.1
	c0.2,0.1,0.4,0.3,0.2,0.6c-0.3,0.6-0.4,1.2-0.2,1.3s0.6-0.2,1-0.7c0.2-0.3,0.4-0.2,0.6,0C7.8,18.6,8,18.8,8,18.8c0,0,0.8,1.6,1,1.9
	c0.2,0.3,0.4,0.3,0.6,0c0.2-0.3,0.4-0.6,0.4-0.6c0.1-0.1,0.1-0.3,0.1-0.5l-0.3-3.1c0-0.2,0-0.2,0.1-0.5c0.1-0.2,1.4-2.2,1.6-2.5
	c0.2-0.3,0.4-0.3,0.6-0.1c0.2,0.2,5.7,6.7,5.7,6.7c0.3,0.3,0.5,0.4,0.9-0.2C19.1,19.5,19,19.1,18.9,18.9z"/>
</symbol><symbol id="icon-run" viewBox="0 0 20 21">
<g>
	<ellipse cx="14.3" cy="2" rx="2.1" ry="2"/>
	<path d="M19.4,4.6c-0.5-0.2-1.2-0.1-1.4,0.4l-0.9,1.6L13,4.3c-0.2-0.1-0.3-0.1-0.6-0.1H7.9C7.5,4.2,7.2,4.3,7,4.7L5.3,7.6
		C5,8.1,5.2,8.7,5.7,8.9C5.9,9,6.1,9,6.2,9C6.6,9,7,8.8,7.2,8.5l1.4-2.4h1.6l-4.7,8.1H1.1c-0.6,0-1.1,0.4-1.1,1s0.5,1,1.1,1h5
		c0.4,0,0.7-0.2,0.9-0.5l1.9-3.2l3,2.6L11.7,20c-0.1,0.5,0.4,1,1,1c0,0,0,0,0.1,0c0.6,0,1-0.4,1.1-0.9l0.3-5.4
		c0-0.3-0.1-0.6-0.3-0.8l-2.6-2.2l2.7-4.6l3.1,1.8C17.1,9,17.5,9.1,17.7,9c0.3-0.1,0.5-0.2,0.7-0.5L19.9,6C20.2,5.5,20,4.9,19.4,4.6
		z"/>
</g>
</symbol><symbol id="mail" viewBox="0 0 19 13">
<path fill-rule="evenodd" clip-rule="evenodd" d="M16.1393 10.4663L11.8089 6.5L16.1393 2.53365L15.5488 1.90264L9.24997 7.67188L2.95117 1.90264L2.36066 2.53365L6.69108 6.5L2.36066 10.4663L2.95117 11.0974L7.33081 7.08594L9.24997 8.84375L11.1691 7.08594L15.5488 11.0974L16.1393 10.4663ZM1.57593 0.25C0.76692 0.25 0.111084 0.948839 0.111084 1.80786V11.1921C0.111084 12.0525 0.7616 12.75 1.57593 12.75H16.924C17.733 12.75 18.3889 12.0512 18.3889 11.1921V1.80786C18.3889 0.947478 17.7383 0.25 16.924 0.25H1.57593Z"/>
</symbol><symbol id="phone" viewBox="0 0 17 15">
<path fill-rule="evenodd" clip-rule="evenodd" d="M8.49995 0.0861511C5.7035 0.0861511 2.90033 0.558819 1.88322 1.50093C1.03934 2.28252 0.758038 3.66329 0.663214 4.53753C0.663214 4.53753 0.650146 4.62393 0.650146 4.66109C0.650146 5.00391 0.944447 5.27887 1.30427 5.27887C1.34678 5.27887 2.92002 5.15837 3.86851 5.08425C3.89134 5.08112 3.91434 5.07806 3.93716 5.07191C4.29043 5.0627 4.57505 4.7908 4.57505 4.45413L4.57822 3.237C4.57822 2.86014 4.90214 2.55737 5.3012 2.55737H11.6987C12.0978 2.55737 12.4218 2.86011 12.4218 3.237L12.425 4.45413C12.425 4.7908 12.7095 5.0627 13.0628 5.07191C13.0854 5.0781 13.1085 5.08112 13.1315 5.08425C14.0801 5.15834 15.6533 5.27887 15.6957 5.27887C16.0553 5.27887 16.3499 5.00391 16.3499 4.66109C16.3499 4.62393 16.3368 4.53753 16.3368 4.53753C16.2419 3.66329 15.9609 2.28255 15.117 1.50093C14.0996 0.558819 11.2964 0.0861511 8.49995 0.0861511ZM8.49995 8.11773C7.7771 8.11773 7.19164 8.67064 7.19164 9.35333C7.19164 10.036 7.7771 10.5889 8.49995 10.5889C9.22279 10.5889 9.80823 10.036 9.80823 9.35333C9.80823 8.67064 9.22279 8.11773 8.49995 8.11773ZM7.51873 5.33752V4.56528C7.51873 4.13902 7.15236 3.79304 6.70106 3.79304C6.24977 3.79304 5.8834 4.13905 5.8834 4.56528V5.33752L1.47095 9.7889C1.16689 10.07 0.977135 10.4622 0.977135 10.8948V12.1335C0.977135 12.8162 1.56264 13.3691 2.28545 13.3691H2.61254V14.1414C2.61254 14.5677 2.97895 14.9136 3.43025 14.9136C3.88154 14.9136 4.24792 14.5677 4.24792 14.1414V13.3691H12.752V14.1414C12.752 14.5677 13.1182 14.9136 13.5697 14.9136C14.021 14.9136 14.3873 14.5677 14.3873 14.1414V13.3691H14.7144C15.4373 13.3691 16.0227 12.8162 16.0227 12.1335V10.8948C16.0227 10.4622 15.833 10.07 15.5289 9.7889L11.1166 5.33752V4.56528C11.1166 4.13902 10.7502 3.79304 10.2989 3.79304C9.84757 3.79304 9.48124 4.13905 9.48124 4.56528V5.33752H7.51873ZM8.49995 6.8821C9.94564 6.8821 11.1166 7.98799 11.1166 9.35333C11.1166 10.7187 9.94567 11.8247 8.49995 11.8247C7.05426 11.8247 5.88336 10.7187 5.88336 9.35333C5.88336 7.98795 7.05426 6.8821 8.49995 6.8821Z"/>
</symbol></svg>