<svg width="23" height="22" viewBox="0 0 23 22" fill="none" xmlns="http://www.w3.org/2000/svg">
<g clip-path="url(#clip0)">
<path d="M18.5347 1.18054C17.7301 1.36097 16.9218 1.54225 16.6212 2.03897L14.2941 6.41253L1.79919 9.21466L1.29295 10.6121L10.8544 11.4649L9.23212 15.2511L5.60602 16.0643L4.69562 17.5524L7.31158 17.8203L7.60988 19.0373C7.74352 19.4687 8.21259 19.7567 8.61297 19.6669L9.82168 19.3959L11.2228 21.6495L12.1332 20.1614L11.2383 16.5104L13.8637 13.3538L18.8731 21.647L19.8832 20.5659L16.8005 7.98894L19.6314 3.93169C19.9358 3.43411 19.7373 2.62405 19.5378 1.81018C19.439 1.40705 18.9351 1.09075 18.5347 1.18054Z" fill="#1D2E5B"/>
</g>
<defs>
<clipPath id="clip0">
<rect width="23" height="22" fill="white"/>
</clipPath>
</defs>
</svg>
