<svg width="17" height="15" viewBox="0 0 17 15" fill="none" xmlns="http://www.w3.org/2000/svg">
<path fill-rule="evenodd" clip-rule="evenodd" d="M8.5 0.0859375C5.70355 0.0859375 2.90038 0.558605 1.88327 1.50071C1.03939 2.2823 0.758088 3.66308 0.663264 4.53732C0.663264 4.53732 0.650196 4.62371 0.650196 4.66087C0.650196 5.0037 0.944496 5.27865 1.30432 5.27865C1.34683 5.27865 2.92007 5.15816 3.86856 5.08404C3.89139 5.08091 3.91439 5.07785 3.93721 5.0717C4.29048 5.06248 4.5751 4.79059 4.5751 4.45392L4.57827 3.23679C4.57827 2.85993 4.90219 2.55716 5.30125 2.55716H11.6987C12.0978 2.55716 12.4218 2.8599 12.4218 3.23679L12.425 4.45392C12.425 4.79059 12.7096 5.06248 13.0628 5.0717C13.0855 5.07789 13.1085 5.08091 13.1316 5.08404C14.0801 5.15812 15.6533 5.27865 15.6957 5.27865C16.0554 5.27865 16.3499 5.0037 16.3499 4.66087C16.3499 4.62371 16.3368 4.53732 16.3368 4.53732C16.2419 3.66308 15.961 2.28234 15.1171 1.50071C14.0996 0.558605 11.2964 0.0859375 8.5 0.0859375ZM8.5 8.11752C7.77715 8.11752 7.19169 8.67043 7.19169 9.35311C7.19169 10.0358 7.77715 10.5887 8.5 10.5887C9.22284 10.5887 9.80827 10.0358 9.80827 9.35311C9.80827 8.67043 9.22284 8.11752 8.5 8.11752ZM7.51878 5.33731V4.56506C7.51878 4.13881 7.15241 3.79282 6.70111 3.79282C6.24982 3.79282 5.88345 4.13884 5.88345 4.56506V5.33731L1.471 9.78869C1.16694 10.0698 0.977184 10.462 0.977184 10.8946V12.1333C0.977184 12.816 1.56269 13.3689 2.2855 13.3689H2.61259V14.1412C2.61259 14.5675 2.979 14.9134 3.4303 14.9134C3.88159 14.9134 4.24797 14.5675 4.24797 14.1412V13.3689H12.752V14.1412C12.752 14.5675 13.1183 14.9134 13.5698 14.9134C14.0211 14.9134 14.3874 14.5675 14.3874 14.1412V13.3689H14.7145C15.4373 13.3689 16.0227 12.816 16.0227 12.1333V10.8946C16.0227 10.462 15.833 10.0698 15.5289 9.78869L11.1167 5.33731V4.56506C11.1167 4.13881 10.7502 3.79282 10.2989 3.79282C9.84762 3.79282 9.48129 4.13884 9.48129 4.56506V5.33731H7.51878ZM8.5 6.88189C9.94569 6.88189 11.1167 7.98777 11.1167 9.35311C11.1167 10.7185 9.94572 11.8244 8.5 11.8244C7.05431 11.8244 5.88341 10.7185 5.88341 9.35311C5.88341 7.98774 7.05431 6.88189 8.5 6.88189Z" fill="#FFD74B"/>
</svg>
