<svg width="14" height="17" viewBox="0 0 14 17" fill="none" xmlns="http://www.w3.org/2000/svg">
<path opacity="0.15" d="M9.31134 4.24996C9.91635 4.24996 10.4068 3.6157 10.4068 2.83329C10.4068 2.05089 9.91635 1.41663 9.31134 1.41663C8.70634 1.41663 8.21588 2.05089 8.21588 2.83329C8.21588 3.6157 8.70634 4.24996 9.31134 4.24996Z" fill="#1D2E5B"/>
<path opacity="0.15" d="M8.64158 7.76969C8.76732 8.01199 8.94767 8.19839 9.15815 8.30356C9.36863 8.40874 9.59904 8.42761 9.8181 8.3576L11.6344 7.77039L11.3698 6.39623L9.55355 6.98344L8.79823 5.51931C8.63685 5.20663 8.3864 4.98917 8.10151 4.91439L5.99494 4.36898C5.75927 4.30781 5.51459 4.34869 5.29868 4.48529C5.08277 4.62189 4.90764 4.84662 4.80034 5.12477L3.8922 7.4736L4.87209 8.10756L5.78023 5.75802L6.85762 6.0371L4.07186 12.0416H1.64322V13.4583H4.07186C4.45417 13.4583 4.81403 13.1948 5.01122 12.7705L6.06176 10.5067L8.89298 11.2391L9.88766 15.0988L10.9262 14.6504L9.93203 10.7914C9.87068 10.5545 9.76213 10.3427 9.61731 10.1773C9.4725 10.0119 9.29653 9.89879 9.10715 9.84935L7.44259 9.41939L8.41317 7.32698L8.64158 7.76969Z" fill="#1D2E5B"/>
</svg>
