<svg width="23" height="22" viewBox="0 0 23 22" fill="none" xmlns="http://www.w3.org/2000/svg">
<path opacity="0.15" d="M17.4297 19.25C16.6123 19.25 15.8133 19.0182 15.1336 18.5838C14.454 18.1494 13.9243 17.532 13.6115 16.8097C13.2987 16.0873 13.2168 15.2925 13.3763 14.5257C13.5358 13.7588 13.9294 13.0544 14.5073 12.5016C15.0853 11.9487 15.8217 11.5722 16.6234 11.4197C17.4251 11.2672 18.2561 11.3455 19.0112 11.6447C19.7664 11.9439 20.4119 12.4506 20.866 13.1006C21.3201 13.7507 21.5625 14.515 21.5625 15.2969C21.5613 16.345 21.1255 17.3498 20.3507 18.0909C19.5759 18.832 18.5254 19.2489 17.4297 19.25ZM17.4297 12.7188C16.8966 12.7188 16.3755 12.87 15.9323 13.1532C15.489 13.4365 15.1435 13.8392 14.9395 14.3103C14.7355 14.7814 14.6822 15.2997 14.7862 15.7998C14.8902 16.3 15.1469 16.7593 15.5238 17.1199C15.9008 17.4804 16.381 17.726 16.9039 17.8255C17.4267 17.9249 17.9686 17.8739 18.4611 17.6788C18.9536 17.4836 19.3746 17.1532 19.6708 16.7292C19.9669 16.3052 20.125 15.8068 20.125 15.2969C20.1242 14.6134 19.8399 13.9581 19.3346 13.4747C18.8294 12.9914 18.1443 12.7195 17.4297 12.7188Z" fill="#1D2E5B"/>
<path opacity="0.15" d="M5.57031 19.25C4.75292 19.25 3.95388 19.0182 3.27425 18.5838C2.59461 18.1494 2.0649 17.532 1.75209 16.8097C1.43929 16.0873 1.35745 15.2925 1.51691 14.5257C1.67638 13.7588 2.06999 13.0544 2.64797 12.5016C3.22596 11.9487 3.96236 11.5722 4.76404 11.4197C5.56573 11.2672 6.3967 11.3455 7.15187 11.6447C7.90705 11.9439 8.5525 12.4506 9.00662 13.1006C9.46074 13.7507 9.70313 14.515 9.70313 15.2969C9.70194 16.345 9.26614 17.3498 8.49134 18.0909C7.71655 18.832 6.66604 19.2489 5.57031 19.25ZM5.57031 12.7188C5.03723 12.7188 4.51612 12.87 4.07288 13.1532C3.62964 13.4365 3.28417 13.8392 3.08017 14.3103C2.87617 14.7814 2.82279 15.2997 2.92679 15.7998C3.03079 16.3 3.28749 16.7593 3.66444 17.1199C4.04139 17.4804 4.52165 17.726 5.04448 17.8255C5.56732 17.9249 6.10926 17.8739 6.60177 17.6788C7.09427 17.4836 7.51522 17.1532 7.81139 16.7292C8.10755 16.3052 8.26563 15.8068 8.26563 15.2969C8.26479 14.6134 7.98056 13.9581 7.47527 13.4747C6.96998 12.9914 6.2849 12.7195 5.57031 12.7188Z" fill="#1D2E5B"/>
<path opacity="0.15" d="M14.3749 5.50004C14.5642 5.50067 14.7518 5.46539 14.9268 5.39625C15.1018 5.3271 15.2608 5.22546 15.3944 5.09719C15.5281 4.96893 15.6339 4.8166 15.7056 4.64899C15.7774 4.48139 15.8137 4.30185 15.8124 4.12075C15.8145 3.94055 15.779 3.76176 15.708 3.59483C15.637 3.42791 15.532 3.2762 15.399 3.14857C15.2659 3.02094 15.1077 2.91996 14.9334 2.85154C14.7591 2.78311 14.5723 2.7486 14.3839 2.75004C14.1951 2.74948 14.0081 2.78449 13.8334 2.85306C13.6588 2.92164 13.5 3.02245 13.3661 3.14973C13.2322 3.27701 13.1258 3.42828 13.053 3.59488C12.9803 3.76149 12.9425 3.94018 12.9419 4.12075C12.9413 4.30131 12.9779 4.48022 13.0496 4.64726C13.1213 4.8143 13.2267 4.9662 13.3598 5.09428C13.4928 5.22236 13.651 5.32411 13.8251 5.39373C13.9993 5.46335 14.1861 5.49948 14.3749 5.50004Z" fill="#1D2E5B"/>
<path opacity="0.15" d="M16.511 8.25001H14.5453C14.513 8.25002 14.4814 8.24172 14.4536 8.226C14.4259 8.21027 14.4031 8.1877 14.3876 8.16063L12.9618 5.66114C12.8613 5.47539 12.7165 5.31488 12.5392 5.1926C12.3618 5.07031 12.1568 4.9897 11.9408 4.95727C11.7248 4.92484 11.5039 4.94152 11.2959 5.00595C11.0879 5.07038 10.8986 5.18075 10.7435 5.32813L7.60527 8.35313C7.34163 8.61053 7.19197 8.95531 7.1875 9.31564C7.1875 10.0633 7.75352 10.3297 8.01855 10.4801C9.29883 11.1856 10.2004 11.7017 10.695 11.9883C10.7213 12.0036 10.743 12.0251 10.7581 12.0508C10.7732 12.0764 10.7812 12.1054 10.7813 12.1348V15.1048C10.7813 15.4748 11.0786 15.7923 11.4654 15.8108C11.5625 15.8153 11.6596 15.8009 11.7507 15.7684C11.8418 15.736 11.9251 15.6862 11.9955 15.6221C12.0659 15.558 12.122 15.4809 12.1604 15.3954C12.1988 15.31 12.2186 15.218 12.2188 15.125V11.4297C12.2188 11.3206 12.1917 11.213 12.1397 11.1158C12.0877 11.0187 12.0122 10.9348 11.9196 10.8711L10.2575 9.72771C10.2366 9.71343 10.2192 9.69504 10.2064 9.67378C10.1935 9.65252 10.1856 9.62889 10.1832 9.60446C10.1807 9.58004 10.1837 9.55539 10.192 9.53218C10.2004 9.50897 10.2138 9.48773 10.2314 9.46989L12.1181 7.54532C12.1375 7.52552 12.1614 7.51038 12.1881 7.50112C12.2147 7.49187 12.2432 7.48878 12.2714 7.49209C12.2995 7.49539 12.3264 7.50502 12.3499 7.52017C12.3734 7.53532 12.3928 7.55557 12.4065 7.57927L13.3867 9.27138C13.449 9.37864 13.5402 9.468 13.6508 9.53019C13.7614 9.59237 13.8873 9.62511 14.0156 9.62501H16.5313C16.6286 9.62512 16.725 9.6063 16.8145 9.5697C16.9041 9.5331 16.9849 9.47948 17.0521 9.41209C17.1193 9.34471 17.1715 9.26496 17.2055 9.17769C17.2396 9.09042 17.2547 8.99745 17.25 8.90442C17.2311 8.53446 16.8978 8.25001 16.511 8.25001Z" fill="#1D2E5B"/>
</svg>
